<svg xmlns="http://www.w3.org/2000/svg" xmlns:xlink="http://www.w3.org/1999/xlink" viewBox="0 0 280 250" preserveAspectRatio="xMidYMid" style="display: block; shape-rendering: auto; background: transparent;" width="280" height="250"><style type="text/css">
  .ld-text text {
    text-anchor: middle;
    dominant-baseline: middle;
    font-size: 60px;
    opacity: 0;
    user-select: none;
    pointer-events: none;
  }
</style>
<g style="transform-origin:140px 125px;transform:scale(1)" class="ld-text">
<g transform="translate(140,125)">
  <g transform="scale(0.7500) translate(0,0)"><g class="path" style="opacity: 1; transform-origin: -76.8px 13.09px; transform: matrix3d(1, 0, 0, 0, 0, 1, 0, 0, 0, 0, 1, 0, 0, 0, 0, 1); animation: 1s linear -0.528s infinite normal forwards running animate-8esm9hwbegb; transform-box: view-box;"><path d="M5.68 48L8.56-6.56L17.12-6.56L29.44 25.92Q30.48 28.72 31.36 31.08Q32.24 33.44 32.88 35.28L32.88 35.28Q33.68 37.36 34.24 39.12L34.24 39.12L34.40 39.12Q34.88 37.36 35.60 35.28L35.60 35.28Q36.24 33.44 37.04 31.08Q37.84 28.72 38.96 25.92L38.96 25.92L51.52-6.56L60.08-6.56L62.88 48L56.08 48L54.72 18Q54.56 14.08 54.48 11.36Q54.40 8.64 54.40 6.88L54.40 6.88L54.40 3.52L54.24 3.52Q53.76 4.72 53.04 6.80L53.04 6.80Q52.40 8.56 51.40 11.32Q50.40 14.08 48.96 18L48.96 18L37.68 48L30.88 48L19.52 18Q18 14.16 17.04 11.40Q16.08 8.64 15.44 6.88L15.44 6.88Q14.72 4.80 14.32 3.52L14.32 3.52L14.16 3.52Q14.24 4.80 14.32 6.88L14.32 6.88Q14.40 10.24 14.08 18L14.08 18L12.48 48L5.68 48" style="fill: rgb(130, 41, 143);" transform="translate(-111.080,-24.000)"></path></g><g class="path" style="opacity: 1; transform-origin: -22.48px 16.62px; transform: matrix3d(1, 0, 0, 0, 0, 1, 0, 0, 0, 0, 1, 0, 0, 0, 0, 1); animation: 1s linear -0.396s infinite normal forwards running animate-8esm9hwbegb; transform-box: view-box;"><path d="M102.40 41.68L103.60 47.04Q101.76 47.60 99.80 48Q97.84 48.40 95.48 48.72Q93.12 49.04 90.56 49.04L90.56 49.04Q86.56 49.04 83.12 47.92Q79.68 46.80 77.12 44.32Q74.56 41.84 73.08 37.88Q71.60 33.92 71.60 28.16L71.60 28.16Q71.60 22.96 73.04 19Q74.48 15.04 77 12.36Q79.52 9.68 82.92 8.32Q86.32 6.96 90.32 6.96L90.32 6.96Q94.24 6.96 97.12 8.48Q100 10 101.88 12.60Q103.76 15.20 104.68 18.68Q105.60 22.16 105.60 26L105.60 26L104.40 29.52L78.56 29.52Q78.56 32 79.20 34.48Q79.84 36.96 81.40 38.96Q82.96 40.96 85.48 42.20Q88 43.44 91.76 43.44L91.76 43.44Q94.16 43.44 96.16 43.16Q98.16 42.88 99.64 42.52Q101.12 42.16 102.40 41.68L102.40 41.68 zM78.80 24.40L98.96 24.40Q98.96 23.84 98.72 21.92Q98.48 20 97.60 17.92Q96.72 15.84 94.88 14.20Q93.04 12.56 90 12.56L90 12.56Q86.64 12.56 84.48 13.96Q82.32 15.36 81.04 17.28Q79.76 19.20 79.28 21.20Q78.80 23.20 78.80 24.40L78.80 24.40" style="fill: rgb(130, 41, 143);" transform="translate(-111.080,-24.000)"></path></g><g class="path" style="opacity: 1; transform-origin: 12px 14.38px; transform: matrix3d(1, 0, 0, 0, 0, 1, 0, 0, 0, 0, 1, 0, 0, 0, 0, 1); animation: 1s linear -0.264s infinite normal forwards running animate-8esm9hwbegb; transform-box: view-box;"><path d="M117.28-3.44L123.68-4.24L123.68 7.76L135.28 7.76L135.28 12.96L123.68 12.96L123.68 34.32Q123.68 36.96 123.80 38.72Q123.92 40.48 124.32 41.52Q124.72 42.56 125.44 43Q126.16 43.44 127.28 43.44L127.28 43.44Q130.32 43.36 134.32 41.20L134.32 41.20L136.24 46.08Q133.60 47.84 131.32 48.44Q129.04 49.04 126.80 49.04L126.80 49.04Q121.52 49.04 119.40 46.04Q117.28 43.04 117.28 36.08L117.28 36.08L117.28 12.96L109.92 12.96L109.92 7.76L117.28 7.76L117.28-3.44" style="fill: rgb(130, 41, 143);" transform="translate(-111.080,-24.000)"></path></g><g class="path" style="opacity: 1; transform-origin: 45.32px 16.62px; transform: matrix3d(1, 0, 0, 0, 0, 1, 0, 0, 0, 0, 1, 0, 0, 0, 0, 1); animation: 1s linear -0.132s infinite normal forwards running animate-8esm9hwbegb; transform-box: view-box;"><path d="M165.84 38.64L165.84 29.52Q164.24 29.60 162.80 29.68Q161.36 29.76 159.96 29.88Q158.56 30 157.44 30.16L157.44 30.16Q151.68 30.88 149.28 32.68Q146.88 34.48 146.88 37.84L146.88 37.84Q146.88 40.64 148.60 42.04Q150.32 43.44 153.12 43.44L153.12 43.44Q156.96 43.44 159.96 42.12Q162.96 40.80 165.84 38.64L165.84 38.64 zM166.56 48.64L165.76 44.24Q162 46.40 158.76 47.72Q155.52 49.04 151.76 49.04L151.76 49.04Q146.40 49.04 143.24 46.44Q140.08 43.84 140.08 37.84L140.08 37.84Q140.08 34.72 141.68 32.40Q143.28 30.08 145.88 28.52Q148.48 26.96 151.76 26.08Q155.04 25.20 158.48 24.96L158.48 24.96Q159.92 24.80 162.24 24.68Q164.56 24.56 165.84 24.48L165.84 24.48Q165.84 21.68 165.68 19.48Q165.52 17.28 164.72 15.72Q163.92 14.16 162.36 13.36Q160.80 12.56 157.92 12.56L157.92 12.56Q155.60 12.56 153.44 12.84Q151.28 13.12 149.60 13.44L149.60 13.44Q147.60 13.84 145.92 14.32L145.92 14.32L144.64 8.80Q146.64 8.32 148.96 7.92L148.96 7.92Q150.96 7.52 153.60 7.24Q156.24 6.96 159.28 6.96L159.28 6.96Q163.36 6.96 165.88 8.16Q168.40 9.36 169.80 11.40Q171.20 13.44 171.72 16.04Q172.24 18.64 172.24 21.52L172.24 21.52L172.24 40.72Q172.24 41.84 172.28 43.08Q172.32 44.32 172.44 45.52Q172.56 46.72 172.72 48L172.72 48L166.56 48.64" style="fill: rgb(130, 41, 143);" transform="translate(-111.080,-24.000)"></path></g><g class="path" style="opacity: 1; transform-origin: 93.56px 13.78px; transform: matrix3d(1, 0, 0, 0, 0, 1, 0, 0, 0, 0, 1, 0, 0, 0, 0, 1); animation: 1s linear 0s infinite normal forwards running animate-8esm9hwbegb; transform-box: view-box;"><path d="M227.04-5.04L225.92 1.12Q222.40 0.40 218.44-0.24Q214.48-0.88 209.28-1.04L209.28-1.04Q204-0.96 200.16 0.56Q196.32 2.08 193.88 4.92Q191.44 7.76 190.24 11.68Q189.04 15.60 189.04 20.32L189.04 20.32Q189.04 26.40 190.60 30.72Q192.16 35.04 194.92 37.80Q197.68 40.56 201.36 41.84Q205.04 43.12 209.28 43.12L209.28 43.12Q212 43.12 214.20 42.80Q216.40 42.48 218.04 42.04Q219.68 41.60 221.04 41.04L221.04 41.04L221.04 26.40L211.04 26.40L211.04 20.40L227.84 20.40L227.84 44.32Q225.04 46.16 220.12 47.64Q215.20 49.12 209.28 49.04L209.28 49.04Q203.84 49.04 198.84 47.76Q193.84 46.48 189.96 43.24Q186.08 40 183.76 34.40Q181.44 28.80 181.44 20.24L181.44 20.24Q181.44 13.28 183.60 8.12Q185.76 2.96 189.48-0.44Q193.20-3.84 198.12-5.56Q203.04-7.28 208.56-7.28L208.56-7.28Q212.16-7.28 215.52-6.92Q218.88-6.56 221.68-6.12Q224.48-5.68 227.04-5.04L227.04-5.04" style="fill: rgb(130, 41, 143);" transform="translate(-111.080,-24.000)"></path></g></g><text dy="0.35em" fill="#82298f" font-family="Actor" font-size="60">MetaG</text>
</g>
</g><style type="text/css">@keyframes animate-8esm9hwbegb { 0.00% {transform: translate(0.00px,0.00px) rotate(0.00deg) scale(1.00, 1.00) skew(0deg, 0.00deg) ;opacity: 1.00;}2.00% {animation-timing-function: cubic-bezier(0.20,0.39,0.50,0.97);transform: translate(0.00px,-1.08px) rotate(0.00deg) ;}36.00% {animation-timing-function: cubic-bezier(0.50,0.03,0.80,0.61);transform: translate(0.00px,-10.00px) rotate(0.00deg) ;}72.00% {transform: translate(0.00px,0.00px) rotate(0.00deg) ;}74.00% {animation-timing-function: cubic-bezier(0.23,0.43,0.48,0.91);transform: translate(0.00px,0.00px) rotate(0.00deg) scale(1.00, 0.95) ;}86.00% {animation-timing-function: cubic-bezier(0.52,0.09,0.77,0.57);transform: translate(0.00px,0.00px) rotate(0.00deg) scale(1.00, 0.80) ;}100.00% {animation-timing-function: cubic-bezier(0.52,0.09,0.77,0.57);transform: translate(0.00px,0.00px) rotate(0.00deg) scale(1.00, 1.00) ;} }</style><!-- [ldio] generated by https://loading.io --></svg>